<?xml version="1.0" encoding="UTF-8"?>
<svg id="Layer_1" data-name="Layer 1" xmlns="http://www.w3.org/2000/svg" viewBox="0 0 600 188">
  <defs>
    <style>
      .cls-1 {
        fill: #231f20;
      }

      .cls-2 {
        fill: #ffce2f;
      }
    </style>
  </defs>
  <polygon class="cls-2" points="578.02 85.32 492.88 17.79 492.88 152.86 578.02 85.32"/>
  <g>
    <g id="C">
      <path class="cls-1" d="M108.64,103.71l18.76,12.92c-10.36,15.3-27.88,25.36-47.76,25.36-31.85,0-57.66-25.82-57.66-57.66s25.82-57.66,57.66-57.66c20.09,0,37.78,10.28,48.09,25.86l-19.06,12.88c-6.24-9.53-17-15.82-29.24-15.82-19.3,0-34.95,15.64-34.95,34.94s15.64,34.94,34.95,34.94c12.21,0,22.96-6.27,29.2-15.76h0Z"/>
    </g>
    <path class="cls-1" d="M319.47,81.01c-2-3.63-4.54-6.91-7.49-9.75-7.36-7.08-17.35-11.42-28.35-11.42-22.62,0-40.96,18.39-40.96,41.08s18.34,41.08,40.96,41.08c11.91,0,22.63-5.1,30.11-13.23l-14.88-14.88c-3.64,4.08-8.94,6.64-14.83,6.64-7.36,0-13.79-4-17.22-9.94h57.78c1.19-21.15-3.58-26.8-5.12-29.57h0ZM267.3,89.9c3.53-5.5,9.7-9.15,16.73-9.15s13.2,3.64,16.73,9.15h-33.47,0Z"/>
    <path class="cls-1" d="M353.89,61.88h0v.22-.22h22.73v20.65h-22.74v59.47h-21.47V61.89h.04c0-.26-.02-.52-.02-.8,0-.36-.02-.72-.02-1.08,0-23.24,19.65-42.17,44.21-42.92v21.7c-12.58.56-22.62,10.67-22.73,23.1h0Z"/>
    <g id="N">
      <path class="cls-1" d="M235.05,94.4v47.59h-20.96v-44.53c-1.28-8.4-8.43-12.53-14.59-12.53-6.84,0-13.15,5.71-14.15,12.03l-.44,45.03h-20.96V61.08h20.96v5.54c4.61-2.26,9.92-3.79,15.23-3.79s9.64.68,14.07,2.75c9.31,4.33,19.93,16.13,20.83,28.82h.01Z"/>
    </g>
    <polygon class="cls-1" points="156.32 69.33 156.32 141.99 135.37 141.99 135.37 61.86 156.32 69.33"/>
    <polygon class="cls-1" points="463.84 61.86 434.57 134.06 423.25 162.05 419.66 170.92 396.43 170.79 411.16 134.38 379.48 61.9 403.08 62 422.47 106.38 440.47 61.9 463.84 61.86"/>
  </g>
</svg>