<?xml version="1.0" encoding="UTF-8"?>
<svg id="Layer_1" data-name="Layer 1" xmlns="http://www.w3.org/2000/svg" viewBox="0 0 401 401">
  <defs>
    <style>
      .cls-1 {
        fill: #e4e6e7;
      }

      .cls-2, .cls-3 {
        fill: #aeb4b7;
      }

      .cls-3 {
        fill-rule: evenodd;
      }
    </style>
  </defs>
  <rect class="cls-1" x="0" y="0" width="401" height="401"/>
  <path class="cls-3" d="M111.86,114.44h21.37c2.18,0,3.89,1.71,3.89,3.89v21.37c0,2.09-1.71,3.9-3.89,3.9h-21.37c-2.09,0-3.89-1.81-3.89-3.9v-21.37c0-2.18,1.81-3.89,3.89-3.89h0ZM268.69,114.44h21.37c2.19,0,3.9,1.71,3.9,3.89v21.37c0,2.09-1.71,3.9-3.9,3.9h-21.37c-2.09,0-3.89-1.81-3.89-3.9v-21.37c0-2.18,1.8-3.89,3.89-3.89h0ZM290.53,88.03h-32.96v224.94h32.96c5.8,0,10.55-4.75,10.55-10.55V98.58c0-5.8-4.75-10.55-10.55-10.55ZM293.95,282.67c0,2.18-1.71,3.89-3.89,3.89h-21.37c-2.09,0-3.9-1.71-3.9-3.89v-21.38c0-2.09,1.81-3.89,3.9-3.89h21.37c2.18,0,3.89,1.8,3.89,3.89v21.38ZM293.95,234.98c0,2.19-1.71,3.9-3.89,3.9h-21.37c-2.09,0-3.9-1.71-3.9-3.9v-21.28c0-2.18,1.81-3.99,3.9-3.99h21.37c2.18,0,3.89,1.81,3.89,3.99v21.28ZM293.95,187.39c0,2.09-1.71,3.9-3.89,3.9h-21.37c-2.09,0-3.9-1.81-3.9-3.9v-21.37c0-2.18,1.81-3.89,3.9-3.89h21.37c2.18,0,3.89,1.71,3.89,3.89v21.37ZM111.38,88.03c-5.79,0-10.54,4.75-10.54,10.55v203.84c0,5.8,4.75,10.55,10.54,10.55h32.96V88.03h-32.96ZM137.13,282.67c0,2.18-1.71,3.89-3.9,3.89h-21.37c-2.09,0-3.9-1.71-3.9-3.89v-21.38c0-2.09,1.81-3.89,3.9-3.89h21.37c2.19,0,3.9,1.8,3.9,3.89v21.38ZM137.13,234.98c0,2.19-1.71,3.9-3.9,3.9h-21.37c-2.09,0-3.9-1.71-3.9-3.9v-21.28c0-2.18,1.81-3.99,3.9-3.99h21.37c2.19,0,3.9,1.81,3.9,3.99v21.28ZM137.13,187.39c0,2.09-1.71,3.9-3.9,3.9h-21.37c-2.09,0-3.9-1.81-3.9-3.9v-21.37c0-2.18,1.81-3.89,3.9-3.89h21.37c2.19,0,3.9,1.71,3.9,3.89v21.37Z"/>
  <rect class="cls-2" x="144.34" y="88.03" width="113.23" height="224.94"/>
</svg>